<svg xmlns="http://www.w3.org/2000/svg" width="16" height="16" viewBox="0 0 16 16" fill="none">
  <path d="M8.33334 1C8.37712 1 8.42046 1.00862 8.4609 1.02537C8.50135 1.04213 8.53809 1.06668 8.56905 1.09763C8.6 1.12858 8.62455 1.16533 8.6413 1.20577C8.65806 1.24621 8.66668 1.28956 8.66668 1.33333V2C8.66668 2.04377 8.65806 2.08712 8.6413 2.12756C8.62455 2.168 8.6 2.20475 8.56905 2.2357C8.53809 2.26666 8.50135 2.29121 8.4609 2.30796C8.42046 2.32471 8.37712 2.33333 8.33334 2.33333H2.66668V13.6667H8.33334C8.37712 13.6667 8.42046 13.6753 8.4609 13.692C8.50135 13.7088 8.53809 13.7333 8.56905 13.7643C8.6 13.7952 8.62455 13.832 8.6413 13.8724C8.65806 13.9129 8.66668 13.9562 8.66668 14V14.6667C8.66668 14.7104 8.65806 14.7538 8.6413 14.7942C8.62455 14.8347 8.6 14.8714 8.56905 14.9024C8.53809 14.9333 8.50135 14.9579 8.4609 14.9746C8.42046 14.9914 8.37712 15 8.33334 15H2.66668C2.3246 15 1.9956 14.8685 1.74774 14.6328C1.49988 14.397 1.35211 14.075 1.33501 13.7333L1.33334 13.6667V2.33333C1.33334 1.99125 1.46482 1.66226 1.70058 1.4144C1.93635 1.16653 2.25836 1.01877 2.60001 1.00167L2.66668 1H8.33334ZM11.3737 4.431L14.2357 7.293C14.4151 7.47247 14.5196 7.71346 14.528 7.96711C14.5363 8.22076 14.4479 8.46811 14.2807 8.659L14.2357 8.707L11.3737 11.569C11.3112 11.6315 11.2264 11.6666 11.138 11.6666C11.0496 11.6666 10.9649 11.6315 10.9023 11.569L10.431 11.0977C10.3685 11.0352 10.3334 10.9504 10.3334 10.862C10.3334 10.7736 10.3685 10.6888 10.431 10.6263L12.39 8.66667H5.66668C5.6229 8.66667 5.57956 8.65805 5.53912 8.64129C5.49867 8.62454 5.46193 8.59999 5.43097 8.56904C5.40002 8.53808 5.37547 8.50134 5.35872 8.46089C5.34197 8.42045 5.33334 8.37711 5.33334 8.33333V7.66667C5.33334 7.62289 5.34197 7.57955 5.35872 7.53911C5.37547 7.49866 5.40002 7.46192 5.43097 7.43096C5.46193 7.40001 5.49867 7.37546 5.53912 7.35871C5.57956 7.34196 5.6229 7.33333 5.66668 7.33333H12.39L10.431 5.37367C10.3685 5.31116 10.3334 5.22639 10.3334 5.138C10.3334 5.04961 10.3685 4.96484 10.431 4.90233L10.9023 4.431C10.9649 4.36851 11.0496 4.3334 11.138 4.3334C11.2264 4.3334 11.3112 4.36851 11.3737 4.431Z" fill="white"/>
</svg>