<svg xmlns="http://www.w3.org/2000/svg" width="40" height="34" viewBox="0 0 40 34" fill="none">
  <path d="M0.869021 32.2717C0.483057 32.9384 0.964115 33.7728 1.73445 33.7728H38.2656C39.0359 33.7728 39.5169 32.9384 39.131 32.2717L20.8654 0.722122C20.4803 0.0568369 19.5197 0.0568373 19.1346 0.722122L0.869021 32.2717ZM21.8182 27.3182C21.8182 27.8705 21.3705 28.3182 20.8182 28.3182H19.1818C18.6295 28.3182 18.1818 27.8705 18.1818 27.3182V25.6818C18.1818 25.1296 18.6295 24.6818 19.1818 24.6818H20.8182C21.3705 24.6818 21.8182 25.1296 21.8182 25.6818V27.3182ZM21.8182 20.0455C21.8182 20.5978 21.3705 21.0455 20.8182 21.0455H19.1818C18.6295 21.0455 18.1818 20.5978 18.1818 20.0455V14.7727C18.1818 14.2205 18.6295 13.7728 19.1818 13.7728H20.8182C21.3705 13.7728 21.8182 14.2205 21.8182 14.7728V20.0455Z" fill="#E1F25C"/>
</svg>